<?xml version="1.0" encoding="utf-8"?>
<!-- Generator: Adobe Illustrator 24.1.2, SVG Export Plug-In . SVG Version: 6.00 Build 0)  -->
<svg version="1.1" id="Camada_1" xmlns="http://www.w3.org/2000/svg" xmlns:xlink="http://www.w3.org/1999/xlink" x="0px" y="0px"
	 viewBox="0 0 158.6 35.5" style="enable-background:new 0 0 158.6 35.5;" xml:space="preserve">
<style type="text/css">
	.st0{fill:#394149;}
	.st1{fill:#FFFFFF;}
</style>
<path class="st0" d="M0,0v35.5h158.6V0H0z M156.6,33.5h-81V2h81V33.5z"/>
<path class="st1" d="M8.4,23.7V11.9h4.1v8.6h7.2v3.1L8.4,23.7z"/>
<path class="st1" d="M35.7,17.7c0,3.8-2.3,6.2-7.9,6.2c-5.1,0-7.9-2.1-7.9-6.2c0-3.6,2.7-6.1,7.9-6.1C33.1,11.6,35.7,13.9,35.7,17.7
	z M31.6,17.7c0-1.7-0.7-3.1-3.8-3.1c-2.9,0-3.8,1.2-3.8,3.1c0,1.9,0.9,3.1,3.8,3.1C30.8,20.8,31.6,19.5,31.6,17.7z"/>
<path class="st1" d="M48.3,23.7l-0.1-1.1c-1.4,1-3,1.4-4.7,1.3c-2.5,0-4.6-0.8-5.8-2.3c-0.8-1.1-1.2-2.4-1.1-3.8
	c0-1.3,0.4-2.6,1.1-3.7c1.2-1.5,3.3-2.4,6.5-2.4c3.7,0,5.8,1.1,6.8,3c0.2,0.4,0.3,0.9,0.3,1.4h-3.9c-0.1-0.3-0.3-0.6-0.5-0.8
	c-0.8-0.5-1.7-0.8-2.6-0.7c-1.1-0.1-2.2,0.2-3,0.9c-0.5,0.6-0.7,1.4-0.6,2.2c-0.1,0.7,0.1,1.5,0.6,2.1c0.8,0.8,2,1.2,3.1,1
	c1.1,0.1,2.2-0.3,3.1-1c0.2-0.2,0.3-0.5,0.4-0.8h-4.2v-2.5h7.8v7L48.3,23.7z"/>
<path class="st1" d="M68.5,17.7c0,3.8-2.3,6.2-7.9,6.2c-5.1,0-7.9-2.1-7.9-6.2c0-3.6,2.7-6.1,7.9-6.1C65.9,11.6,68.5,13.9,68.5,17.7
	z M64.4,17.7c0-1.7-0.7-3.1-3.8-3.1c-2.9,0-3.8,1.2-3.8,3.1c0,1.9,0.9,3.1,3.8,3.1C63.6,20.8,64.4,19.5,64.4,17.7z"/>
<path class="st0" d="M82.4,23.6V11.8h2.9v11.8H82.4z"/>
<path class="st0" d="M100.2,18.7c-0.7,1-2,1.4-3.8,1.4c-0.4,0-5.4,0-5.4,0v3.5h-2.8V11.8h8.2c1.3-0.1,2.7,0.3,3.6,1.2
	c0.6,0.8,1,1.9,0.9,3C101,16.9,100.8,17.9,100.2,18.7z M97.9,14.9c-0.3-0.5-0.9-0.7-2-0.7h-4.8v3.6h4.8c1.2,0,1.8-0.2,2.1-0.7
	c0.2-0.3,0.2-0.7,0.2-1.1C98.1,15.6,98.1,15.2,97.9,14.9z"/>
<path class="st0" d="M109.3,23.8c-5.3,0-7-2-7-4h3c0,1,1.3,1.7,4.1,1.7c2.7,0,3.5-0.5,3.5-1.3c0-0.9-0.5-1.1-3.1-1.4
	c-0.5,0-1.9-0.2-2.4-0.3c-3.6-0.4-5-1.5-5-3.4c0-2,2-3.5,6.4-3.5c4.8,0,6.6,1.9,6.6,3.8h-3c0-1-1.1-1.6-3.8-1.6
	c-2.7,0-3.3,0.4-3.3,1.1c0,0.8,0.6,1,3.5,1.4c0.7,0.1,2.1,0.3,2.5,0.3c3.1,0.3,4.4,1.4,4.4,3.4C115.9,22.4,113.8,23.8,109.3,23.8z"
	/>
<path class="st0" d="M124.4,23.8c-3.9,0-6.5-1.5-6.5-4.8v-7.2h2.9V19c0,1.5,1.2,2.5,3.7,2.5c2.3,0,3.6-0.9,3.6-2.5v-7.2h2.8v7.4
	C131,22.2,128.6,23.8,124.4,23.8z"/>
<path class="st0" d="M146.6,23.6v-7.9l-3.7,7.9h-2.8l-3.6-7.9v7.9h-2.7V11.8h3.7l4.1,9l4.1-9h3.6v11.8H146.6z"/>
</svg>
